<?xml version="1.0" standalone="no"?>
<!DOCTYPE svg PUBLIC "-//W3C//DTD SVG 20010904//EN"
 "http://www.w3.org/TR/2001/REC-SVG-20010904/DTD/svg10.dtd">
<svg version="1.0" xmlns="http://www.w3.org/2000/svg"
 width="1600.000000pt" height="800.000000pt" viewBox="0 0 1600.000000 800.000000"
 preserveAspectRatio="xMidYMid meet">

<g transform="translate(0.000000,800.000000) scale(0.100000,-0.100000)"
fill="#000000" stroke="none">
<path d="M9839 5985 c-229 -37 -405 -162 -469 -332 -69 -186 -30 -398 97 -514
78 -73 149 -102 433 -179 242 -66 292 -84 343 -130 105 -92 55 -248 -98 -301
-76 -27 -222 -36 -296 -19 -84 19 -174 66 -236 123 -98 90 -111 97 -165 97
-99 0 -158 -53 -166 -146 -13 -153 181 -321 443 -386 127 -31 363 -31 480 0
228 62 382 205 425 397 14 63 14 197 0 259 -25 114 -97 216 -200 285 -75 50
-133 71 -340 127 -252 69 -312 91 -358 130 -94 80 -51 201 90 250 41 15 81 19
178 18 138 0 206 -18 283 -71 90 -64 111 -73 167 -73 174 0 218 195 72 319
-142 122 -441 186 -683 146z"/>
<path d="M13215 5990 c-169 -26 -304 -89 -392 -184 -94 -101 -133 -200 -133
-341 0 -136 38 -235 120 -315 78 -76 163 -113 426 -185 130 -36 258 -75 283
-86 117 -51 161 -151 111 -250 -40 -77 -167 -129 -317 -129 -136 0 -255 48
-362 146 -82 76 -98 84 -159 84 -83 0 -150 -60 -159 -144 -5 -38 0 -57 26
-110 113 -230 523 -360 883 -280 106 23 226 84 298 150 206 192 211 551 9 738
-87 81 -186 124 -434 191 -289 77 -351 108 -376 182 -9 28 -8 43 6 79 31 82
113 122 266 131 155 9 237 -15 385 -114 78 -53 172 -44 233 21 35 37 41 127
13 182 -51 100 -187 179 -377 220 -88 19 -271 26 -350 14z"/>
<path d="M4354 5971 c-50 -13 -91 -42 -114 -83 -44 -79 -42 -85 274 -828 158
-371 299 -697 313 -725 54 -110 123 -150 246 -144 62 4 80 9 111 32 20 16 48
45 61 65 28 43 618 1418 635 1480 19 74 -16 154 -83 189 -17 9 -55 16 -83 17
-67 1 -119 -33 -156 -100 -14 -27 -130 -305 -258 -619 -127 -313 -236 -577
-240 -585 -7 -12 -12 -7 -23 20 -9 19 -117 284 -241 588 -125 305 -235 570
-245 590 -27 51 -69 88 -116 101 -22 6 -42 10 -45 10 -3 -1 -19 -4 -36 -8z"/>
<path d="M11017 5966 c-51 -19 -85 -52 -98 -95 -7 -24 -9 -211 -7 -561 4 -501
5 -529 26 -608 71 -270 245 -441 520 -509 103 -26 342 -23 446 6 133 36 220
85 312 176 92 91 147 189 186 330 22 78 22 94 23 627 0 540 0 547 -21 575 -34
46 -80 66 -148 67 -69 1 -114 -20 -150 -67 -21 -28 -21 -39 -26 -560 -6 -516
-6 -534 -28 -591 -28 -74 -51 -112 -99 -158 -106 -103 -315 -134 -467 -69 -56
25 -129 91 -163 148 -57 98 -57 94 -63 670 -5 521 -5 532 -26 560 -45 60 -143
86 -217 59z"/>
<path d="M2080 5940 c-19 -10 -44 -33 -55 -52 -20 -32 -20 -51 -20 -808 0
-754 1 -776 20 -808 11 -18 38 -41 60 -52 40 -19 64 -20 801 -20 846 0 803 -3
851 69 l23 34 0 777 0 777 -23 34 c-48 73 -4 69 -857 69 -727 -1 -767 -2 -800
-20z m883 -335 c64 -31 72 -54 75 -217 l3 -148 135 0 c154 0 194 -13 229 -72
27 -46 27 -137 -1 -174 -47 -64 -63 -69 -220 -72 l-144 -3 0 -137 c0 -119 -3
-141 -20 -170 -28 -46 -76 -72 -133 -72 -64 0 -111 23 -139 69 -20 32 -23 52
-26 174 l-4 137 -127 0 c-112 0 -132 3 -171 23 -59 30 -82 74 -78 148 5 66 35
115 84 135 23 10 75 14 163 14 l129 0 4 138 c4 154 15 188 71 222 39 24 125
27 170 5z"/>
<path d="M6250 5951 c-76 -23 -131 -73 -155 -140 -13 -38 -15 -138 -15 -735 0
-674 1 -692 21 -736 28 -63 64 -97 126 -120 51 -19 78 -20 565 -20 489 0 513
1 553 20 74 36 104 129 67 213 -38 85 -17 81 -519 87 -343 4 -445 8 -455 18
-17 17 -24 344 -9 384 l10 27 385 3 c370 3 386 4 412 24 54 40 69 70 69 139 0
69 -15 99 -69 139 -26 20 -42 21 -412 24 l-385 3 -10 27 c-15 40 -8 295 10
315 12 15 56 17 445 17 402 0 434 1 466 19 50 26 75 74 74 141 0 70 -23 114
-74 140 -38 19 -57 20 -557 19 -285 0 -529 -4 -543 -8z"/>
<path d="M7830 5945 c-55 -17 -106 -65 -134 -125 -21 -44 -21 -58 -24 -749 -2
-478 1 -720 8 -756 18 -86 72 -125 173 -125 50 0 72 5 98 23 67 45 69 55 69
409 0 174 4 319 8 322 5 3 160 -157 346 -354 244 -260 349 -365 380 -379 56
-27 134 -28 186 -1 69 35 100 131 65 203 -9 18 -112 133 -230 257 -227 239
-226 238 -142 239 51 1 152 36 208 72 150 95 231 253 231 449 0 271 -153 461
-414 514 -106 22 -758 22 -828 1z m760 -327 c87 -40 130 -104 130 -193 0 -104
-61 -174 -169 -195 -30 -5 -154 -10 -277 -10 -189 0 -225 2 -238 16 -24 24
-24 365 0 389 15 15 45 16 268 13 204 -3 258 -7 286 -20z"/>
<path d="M13200 3819 c-141 -22 -282 -86 -363 -165 -94 -92 -137 -191 -145
-328 -8 -151 28 -255 121 -348 70 -70 178 -117 407 -178 306 -82 369 -110 409
-181 49 -87 9 -195 -91 -242 -29 -14 -80 -30 -112 -36 -186 -34 -342 12 -487
146 -39 35 -83 66 -103 71 -99 28 -206 -55 -206 -159 0 -41 36 -121 75 -167
72 -86 237 -172 398 -209 110 -25 348 -22 452 6 252 67 405 224 437 449 33
235 -73 432 -287 533 -48 23 -169 62 -303 98 -122 34 -237 68 -255 77 -62 32
-96 64 -108 103 -10 33 -8 45 9 84 37 83 142 127 302 127 133 0 233 -33 338
-112 33 -25 54 -33 101 -36 122 -9 191 74 167 202 -17 92 -178 203 -356 246
-100 24 -304 34 -400 19z m372 -59 c175 -38 327 -137 344 -225 23 -124 -101
-187 -209 -106 -109 82 -205 112 -357 112 -142 -1 -230 -25 -295 -83 -86 -75
-87 -192 -4 -263 52 -43 119 -69 330 -125 227 -61 303 -89 380 -141 73 -49
115 -98 153 -179 26 -55 31 -80 34 -161 2 -53 -1 -120 -7 -148 -37 -173 -166
-299 -371 -363 -67 -20 -95 -23 -250 -23 -152 0 -185 3 -253 23 -201 58 -349
167 -387 284 -24 77 25 148 107 155 48 5 49 5 126 -66 87 -78 186 -133 274
-151 73 -16 251 -8 320 14 115 36 184 120 184 224 1 75 -25 129 -83 171 -56
41 -114 62 -358 128 -234 63 -328 102 -395 164 -131 120 -162 317 -79 495 108
231 437 340 796 264z"/>
<path d="M6705 3795 c-82 -29 -127 -117 -105 -204 11 -45 559 -1341 605 -1431
50 -98 117 -139 226 -140 81 0 138 27 180 86 17 22 169 366 339 765 330 772
330 770 294 845 -30 63 -111 101 -186 89 -27 -5 -55 -20 -83 -46 -39 -36 -56
-74 -291 -653 -137 -339 -251 -616 -254 -616 -3 0 -117 273 -254 608 -136 334
-259 622 -273 641 -28 36 -93 71 -133 70 -14 0 -43 -6 -65 -14z m124 -49 c15
-8 36 -26 45 -40 9 -14 129 -301 266 -637 138 -336 255 -620 261 -631 6 -12
19 -18 32 -16 18 3 59 95 277 633 288 708 287 705 374 705 87 0 145 -61 131
-137 -6 -32 -573 -1371 -615 -1453 -36 -70 -97 -110 -168 -110 -90 0 -145 37
-192 130 -70 140 -593 1387 -598 1427 -2 24 1 56 8 74 26 61 115 88 179 55z"/>
<path d="M8597 3796 c-50 -19 -67 -34 -88 -81 -17 -38 -19 -87 -19 -804 0
-757 0 -765 21 -808 27 -57 77 -83 156 -83 77 0 121 24 151 81 l22 44 -2 782
c-3 777 -3 782 -24 810 -45 60 -142 87 -217 59z m169 -69 c12 -15 25 -46 29
-69 3 -24 5 -374 3 -778 -2 -603 -5 -740 -17 -762 -20 -39 -73 -61 -134 -55
-68 6 -103 43 -112 119 -3 29 -5 379 -3 778 3 670 4 727 20 750 29 40 57 51
127 47 55 -3 67 -7 87 -30z"/>
<path d="M11022 3801 c-44 -11 -90 -56 -103 -101 -7 -23 -9 -213 -7 -560 4
-504 5 -528 26 -605 39 -141 94 -239 186 -330 93 -92 179 -140 317 -176 119
-32 327 -32 452 -1 264 66 434 235 509 507 22 78 22 94 23 627 0 537 0 547
-21 574 -41 56 -69 68 -149 68 -80 0 -108 -12 -149 -68 -20 -27 -21 -42 -26
-559 -6 -516 -6 -534 -28 -591 -29 -77 -54 -116 -104 -161 -150 -136 -437
-129 -572 15 -48 51 -64 78 -92 155 -17 46 -19 98 -24 582 -5 517 -6 532 -26
559 -11 15 -31 36 -45 46 -28 21 -119 31 -167 19z m153 -63 c14 -13 30 -41 35
-63 5 -22 10 -256 10 -520 0 -522 2 -543 57 -653 30 -60 110 -140 171 -171
132 -67 324 -65 454 6 61 33 128 105 162 172 54 106 56 125 56 651 0 301 4
499 10 522 16 57 50 78 126 78 76 0 110 -23 124 -85 13 -54 12 -841 0 -981
-32 -357 -228 -582 -552 -634 -98 -16 -311 -8 -393 15 -234 63 -393 230 -456
477 -20 78 -22 113 -26 572 -3 268 -2 509 2 534 4 30 16 55 35 74 25 25 35 28
94 28 53 0 70 -4 91 -22z"/>
<path d="M9439 3781 c-75 -23 -122 -67 -149 -138 -19 -52 -20 -78 -20 -776 l0
-723 23 -44 c29 -56 73 -80 150 -80 70 0 124 26 153 73 17 29 19 60 24 359 3
226 8 325 16 320 5 -4 157 -163 336 -353 180 -191 344 -357 365 -370 54 -34
163 -34 211 -1 64 46 87 146 46 209 -10 17 -112 128 -226 247 -115 119 -208
221 -208 226 0 6 22 10 49 10 109 0 258 72 335 161 170 198 168 534 -6 724
-36 40 -73 66 -132 95 -131 65 -171 70 -581 69 -198 0 -372 -4 -386 -8z m766
-41 c194 -32 329 -130 385 -279 73 -194 37 -402 -95 -540 -86 -91 -201 -141
-320 -141 -54 0 -75 -12 -75 -43 0 -11 89 -112 213 -240 117 -122 223 -235
235 -251 42 -55 20 -145 -43 -172 -101 -42 -124 -25 -466 339 -162 171 -315
333 -340 360 -38 39 -52 48 -75 45 -51 -6 -54 -23 -54 -370 l0 -318 -28 -31
c-52 -59 -178 -48 -213 18 -12 22 -14 151 -14 757 l0 731 28 47 c26 46 61 72
117 89 37 11 675 10 745 -1z"/>
<path d="M9601 3491 c-27 -27 -33 -83 -29 -270 l3 -163 28 -24 c28 -24 29 -24
270 -24 266 0 329 9 398 54 60 40 92 116 87 204 -4 83 -30 136 -87 179 -73 56
-115 63 -398 63 -237 0 -254 -1 -272 -19z m609 -56 c148 -81 143 -289 -10
-359 -41 -19 -67 -21 -292 -24 -169 -3 -253 0 -267 7 -20 11 -21 19 -21 199 0
137 3 191 13 201 9 9 71 12 267 9 l255 -3 55 -30z"/>
</g>
</svg>
